<?xml version="1.0" encoding="UTF-8" standalone="no"?>
<!DOCTYPE svg PUBLIC "-//W3C//DTD SVG 1.1//EN" "http://www.w3.org/Graphics/SVG/1.1/DTD/svg11.dtd">
<svg width="100%" height="100%" viewBox="0 0 310 310" version="1.1" xmlns="http://www.w3.org/2000/svg" xmlns:xlink="http://www.w3.org/1999/xlink" xml:space="preserve" xmlns:serif="http://www.serif.com/" style="fill-rule:evenodd;clip-rule:evenodd;stroke-linejoin:round;stroke-miterlimit:1.41421;">
    <g transform="matrix(1.01464,0,0,1.24121,0,0)">
        <rect x="0" y="0" width="305.527" height="249.757" style="fill:rgb(228,0,55);"/>
    </g>
    <g id="logo" transform="matrix(1,0,0,1,2.23642,30.1214)">
        <g transform="matrix(4.16667,0,0,4.16667,-229.742,-4.14918)">
            <path d="M77.283,25.644C75.583,26.151 74.415,26.676 72.993,27.012C72.38,27.157 71.568,26.514 71.353,25.89C70.911,24.6 70.814,23.1 70.316,21.955C69.524,21.177 66.751,22.142 66.744,23.209C67.103,24.447 68.002,25.924 68.511,27.394C68.658,27.813 68.633,28.251 68.543,28.684C68.349,29.59 67.801,30.324 66.979,30.726C65.446,31.472 63.899,31.959 62.233,32.392C59.998,32.977 57.891,33.565 55.712,34.26C55.554,34.311 55.43,34.452 55.384,34.607C55.061,35.752 55.242,36.656 55.793,37.689C56.168,38.393 56.834,39.466 57.548,39.222C60.246,38.038 62.738,36.698 65.46,35.519C66.782,34.948 68.088,34.158 69.606,34.382C70.427,34.502 71.265,34.952 71.574,35.754C72.104,37.13 72.715,39.862 72.732,39.902C73.209,40.933 76.509,39.752 76.387,38.847C76.383,38.819 75.077,36.126 74.723,35.22C74.423,34.456 75.115,33.419 75.879,33.198C81.535,31.56 87.334,31.304 93.153,31.766C94.306,31.855 95.421,31.92 96.598,32.143C97.819,32.375 98.934,32.583 100.155,32.811C101.755,33.111 102.861,33.616 104.481,33.964C104.843,34.067 104.923,33.733 104.958,33.581L105.016,33.405C105.948,27.18 116.888,31.298 113.41,36.796C113.41,36.796 113.354,36.946 113.331,36.983C113.229,37.168 113.368,37.28 113.368,37.28C114.452,38.034 115.528,38.664 116.791,39.458C116.879,39.513 117.028,39.627 117.152,39.543C117.715,39.16 117.906,38.544 118.369,38.101C118.879,37.612 119.434,37.212 120.061,36.88C122.76,35.45 125.464,34.399 128.269,33.302C128.302,33.291 128.313,33.118 128.269,33.086C106.282,18.507 86.051,23.117 77.433,25.594L77.283,25.644Z" style="fill:white;fill-rule:nonzero;"/>
        </g>
        <g transform="matrix(4.16667,0,0,4.16667,-229.742,-4.14918)">
            <path d="M77.451,4.967C75.749,5.475 74.581,6 73.161,6.336C72.547,6.48 71.734,5.838 71.52,5.214C71.077,3.923 70.982,2.424 70.48,1.278C69.69,0.5 66.918,1.466 66.912,2.534C67.269,3.771 68.17,5.249 68.677,6.717C68.824,7.139 68.801,7.575 68.71,8.007C68.515,8.916 67.967,9.648 67.147,10.049C65.614,10.797 64.065,11.283 62.4,11.715C60.166,12.301 58.059,12.889 55.88,13.584C55.722,13.635 55.596,13.776 55.552,13.931C55.227,15.079 55.41,15.98 55.96,17.013C56.336,17.717 57,18.789 57.714,18.545C60.412,17.361 62.904,16.022 65.627,14.845C66.948,14.272 68.256,13.482 69.772,13.706C70.595,13.827 71.433,14.278 71.742,15.081C72.27,16.455 72.881,19.186 72.898,19.226C73.377,20.257 76.675,19.077 76.553,18.171C76.549,18.142 75.245,15.449 74.889,14.543C74.589,13.779 75.282,12.745 76.047,12.522C81.703,10.883 87.5,10.627 93.321,11.089C94.474,11.179 95.588,11.245 96.764,11.467C97.987,11.699 99.1,11.907 100.322,12.135C101.921,12.436 103.027,12.94 104.647,13.29C105.009,13.39 105.091,13.058 105.122,12.907L105.182,12.728C106.114,6.504 117.054,10.623 113.578,16.121C113.578,16.121 113.52,16.272 113.499,16.306C113.397,16.491 113.534,16.604 113.534,16.604C114.618,17.358 115.694,17.987 116.957,18.783C117.045,18.837 117.194,18.951 117.318,18.867C117.881,18.484 118.074,17.869 118.537,17.425C119.045,16.936 119.6,16.537 120.228,16.205C122.926,14.776 125.632,13.723 128.437,12.626C128.468,12.615 128.479,12.442 128.437,12.411C106.448,-2.169 86.217,2.44 77.6,4.918L77.451,4.967Z" style="fill:white;fill-rule:nonzero;"/>
        </g>
        <g transform="matrix(4.16667,0,0,4.16667,-229.742,-4.14918)">
            <path d="M77.197,46.278C75.495,46.786 74.327,47.311 72.908,47.647C72.294,47.79 71.482,47.148 71.267,46.524C70.824,45.234 70.729,43.734 70.23,42.588C69.438,41.811 66.665,42.776 66.658,43.844C67.017,45.081 67.917,46.559 68.425,48.028C68.572,48.45 68.548,48.885 68.457,49.318C68.263,50.225 67.716,50.958 66.893,51.36C65.36,52.108 63.811,52.593 62.147,53.026C59.912,53.612 57.805,54.199 55.627,54.894C55.468,54.946 55.344,55.086 55.298,55.241C54.975,56.389 55.156,57.29 55.708,58.323C56.084,59.028 56.748,60.1 57.462,59.856C60.16,58.671 62.652,57.332 65.375,56.156C66.694,55.582 68.002,54.793 69.521,55.017C70.341,55.137 71.179,55.586 71.488,56.391C72.019,57.765 72.63,60.497 72.646,60.537C73.123,61.568 76.421,60.387 76.301,59.482C76.297,59.453 74.991,56.759 74.635,55.854C74.337,55.089 75.028,54.055 75.794,53.832C81.449,52.194 87.247,51.938 93.067,52.4C94.22,52.49 95.335,52.555 96.51,52.778C97.733,53.009 98.846,53.217 100.069,53.446C101.669,53.747 102.775,54.251 104.396,54.601C104.755,54.701 104.837,54.369 104.87,54.217L104.931,54.039C105.862,47.814 116.8,51.933 113.324,57.431C113.324,57.431 113.268,57.581 113.245,57.617C113.144,57.801 113.28,57.914 113.28,57.914C114.366,58.669 115.442,59.297 116.705,60.093C116.793,60.148 116.942,60.261 117.064,60.177C117.629,59.794 117.82,59.179 118.284,58.736C118.793,58.247 119.348,57.847 119.976,57.515C122.672,56.086 125.378,55.033 128.183,53.936C128.216,53.925 128.227,53.752 128.183,53.721C106.196,39.141 85.965,43.75 77.347,46.229L77.197,46.278Z" style="fill:white;fill-rule:nonzero;"/>
        </g>
    </g>
</svg>
