<?xml version="1.0" encoding="UTF-8" standalone="no"?>
<!DOCTYPE svg PUBLIC "-//W3C//DTD SVG 1.1//EN" "http://www.w3.org/Graphics/SVG/1.1/DTD/svg11.dtd">
<svg width="100%" height="100%" viewBox="0 0 50 50" version="1.1" xmlns="http://www.w3.org/2000/svg" xmlns:xlink="http://www.w3.org/1999/xlink" xml:space="preserve" xmlns:serif="http://www.serif.com/" style="fill-rule:evenodd;clip-rule:evenodd;stroke-linejoin:round;stroke-miterlimit:1.41421;">
    <g transform="matrix(4.16667,0,0,4.16667,0,0)">
        <g transform="matrix(1.00267,0,0,1.00764,0,-0.091695)">
            <rect x="0" y="0.091" width="11.968" height="11.909" style="fill:rgb(104,37,88);fill-rule:nonzero;"/>
        </g>
        <g>
            <g>
                <clipPath id="_clip1">
                    <rect x="0.444" y="1.736" width="11.226" height="9.581"/>
                </clipPath>
                <g clip-path="url(#_clip1)">
                    <path d="M3.82,5.338C3.571,5.412 3.401,5.489 3.193,5.538C3.104,5.559 2.985,5.465 2.954,5.374C2.89,5.186 2.876,4.966 2.802,4.799C2.687,4.685 2.281,4.826 2.279,4.982C2.333,5.163 2.463,5.379 2.539,5.594C2.56,5.655 2.557,5.719 2.543,5.782C2.515,5.915 2.435,6.022 2.315,6.081C2.09,6.19 1.863,6.261 1.621,6.325C1.295,6.41 0.986,6.496 0.668,6.597C0.645,6.605 0.627,6.625 0.62,6.648C0.572,6.816 0.6,6.948 0.679,7.099C0.734,7.202 0.832,7.358 0.936,7.323C1.331,7.15 1.694,6.954 2.092,6.782C2.286,6.698 2.477,6.582 2.698,6.615C2.818,6.633 2.941,6.699 2.985,6.816C3.064,7.017 3.152,7.416 3.155,7.422C3.225,7.573 3.708,7.4 3.69,7.268C3.689,7.264 3.498,6.87 3.446,6.738C3.402,6.626 3.503,6.475 3.615,6.442C4.441,6.203 5.29,6.166 6.14,6.233C6.309,6.246 6.472,6.256 6.644,6.288C6.821,6.322 6.984,6.352 7.163,6.386C7.397,6.43 7.559,6.503 7.796,6.554C7.849,6.569 7.86,6.521 7.864,6.498L7.873,6.472C8.01,5.563 9.608,6.165 9.101,6.968C9.101,6.968 9.093,6.99 9.09,6.995C9.074,7.022 9.095,7.039 9.095,7.039C9.253,7.149 9.409,7.241 9.595,7.357C9.607,7.365 9.63,7.382 9.648,7.371C9.73,7.314 9.758,7.224 9.825,7.159C9.899,7.087 9.981,7.029 10.072,6.98C10.467,6.771 10.862,6.618 11.273,6.457C11.276,6.456 11.278,6.43 11.273,6.426C8.059,4.295 5.102,4.969 3.842,5.331L3.82,5.338Z" style="fill:white;fill-rule:nonzero;"/>
                    <path d="M3.845,2.316C3.596,2.39 3.426,2.467 3.218,2.516C3.128,2.537 3.01,2.443 2.978,2.352C2.914,2.164 2.9,1.944 2.826,1.777C2.711,1.663 2.305,1.804 2.304,1.96C2.357,2.141 2.488,2.357 2.563,2.572C2.584,2.633 2.581,2.697 2.567,2.76C2.539,2.893 2.459,3 2.339,3.059C2.115,3.168 1.888,3.239 1.645,3.303C1.319,3.388 1.011,3.474 0.692,3.575C0.669,3.583 0.651,3.604 0.644,3.626C0.597,3.794 0.624,3.926 0.704,4.077C0.759,4.18 0.856,4.336 0.96,4.301C1.355,4.128 1.719,3.932 2.117,3.76C2.31,3.676 2.501,3.56 2.723,3.593C2.843,3.611 2.965,3.677 3.01,3.794C3.088,3.995 3.177,4.394 3.18,4.4C3.249,4.551 3.732,4.378 3.714,4.246C3.713,4.242 3.522,3.848 3.471,3.716C3.427,3.604 3.528,3.453 3.64,3.42C4.466,3.181 5.314,3.144 6.164,3.211C6.333,3.224 6.496,3.234 6.668,3.266C6.846,3.3 7.009,3.33 7.188,3.364C7.421,3.408 7.583,3.481 7.819,3.532C7.873,3.547 7.885,3.499 7.889,3.477L7.898,3.45C8.034,2.541 9.633,3.143 9.125,3.946C9.125,3.946 9.117,3.968 9.113,3.973C9.099,4 9.119,4.017 9.119,4.017C9.276,4.127 9.434,4.219 9.619,4.335C9.632,4.343 9.653,4.36 9.672,4.348C9.754,4.292 9.782,4.202 9.85,4.137C9.924,4.065 10.005,4.007 10.097,3.958C10.491,3.749 10.887,3.596 11.297,3.435C11.301,3.434 11.303,3.408 11.297,3.404C8.083,1.273 5.126,1.947 3.867,2.309L3.845,2.316Z" style="fill:white;fill-rule:nonzero;"/>
                </g>
            </g>
            <path d="M3.808,8.354C3.559,8.428 3.389,8.505 3.181,8.554C3.091,8.575 2.973,8.481 2.941,8.39C2.877,8.202 2.863,7.982 2.79,7.815C2.674,7.701 2.269,7.842 2.267,7.998C2.32,8.179 2.451,8.395 2.526,8.61C2.547,8.671 2.544,8.735 2.53,8.798C2.502,8.931 2.422,9.038 2.302,9.097C2.078,9.206 1.851,9.277 1.608,9.341C1.281,9.426 0.974,9.512 0.655,9.613C0.632,9.621 0.614,9.642 0.607,9.664C0.56,9.832 0.587,9.964 0.667,10.115C0.722,10.218 0.819,10.373 0.923,10.339C1.318,10.165 1.682,9.97 2.08,9.798C2.273,9.714 2.464,9.598 2.686,9.631C2.806,9.649 2.928,9.715 2.973,9.832C3.051,10.033 3.14,10.432 3.143,10.438C3.212,10.589 3.695,10.415 3.677,10.284C3.676,10.28 3.485,9.886 3.434,9.754C3.39,9.642 3.491,9.491 3.603,9.457C4.429,9.219 5.277,9.182 6.127,9.249C6.296,9.262 6.459,9.272 6.631,9.304C6.809,9.338 6.972,9.368 7.151,9.402C7.384,9.446 7.546,9.519 7.783,9.57C7.836,9.585 7.848,9.537 7.852,9.515L7.861,9.488C7.997,8.579 9.596,9.181 9.088,9.984C9.088,9.984 9.08,10.006 9.077,10.011C9.062,10.038 9.082,10.055 9.082,10.055C9.24,10.164 9.397,10.257 9.582,10.372C9.595,10.381 9.617,10.398 9.635,10.386C9.717,10.33 9.745,10.24 9.813,10.175C9.887,10.103 9.968,10.045 10.06,9.996C10.454,9.787 10.85,9.634 11.26,9.474C11.264,9.472 11.266,9.446 11.26,9.442C8.046,7.311 5.089,7.985 3.83,8.347L3.808,8.354Z" style="fill:white;fill-rule:nonzero;"/>
        </g>
    </g>
</svg>
