<?xml version="1.0" encoding="UTF-8" standalone="no"?>
<!DOCTYPE svg PUBLIC "-//W3C//DTD SVG 1.1//EN" "http://www.w3.org/Graphics/SVG/1.1/DTD/svg11.dtd">
<svg width="100%" height="100%" viewBox="0 0 771 375" version="1.1" xmlns="http://www.w3.org/2000/svg" xmlns:xlink="http://www.w3.org/1999/xlink" xml:space="preserve" xmlns:serif="http://www.serif.com/" style="fill-rule:evenodd;clip-rule:evenodd;stroke-linejoin:round;stroke-miterlimit:1.41421;">
    <g transform="matrix(4.16667,0,0,4.16667,0,0)">
        <path d="M0,70.407L11.057,70.407L11.057,72.341L2.102,72.341L2.102,76.735L10.384,76.735L10.384,78.669L2.102,78.669L2.102,83.611L11.185,83.611L11.185,85.544L0,85.544L0,70.407Z" style="fill:white;fill-rule:nonzero;"/>
        <path d="M17.721,79.088C20.431,79.718 21.188,80.645 21.188,82.2C21.188,84.218 19.614,85.878 16.712,85.878C13.221,85.878 12.128,84.008 12.128,81.948L14.021,81.948C14.063,82.999 14.441,84.156 16.964,84.156C18.393,84.156 19.254,83.485 19.254,82.496C19.254,81.78 18.815,81.338 17.511,81.023L15.366,80.517C13.769,80.162 12.464,79.508 12.464,77.576C12.464,75.662 13.874,74.233 16.668,74.233C19.717,74.233 20.895,76.103 20.895,77.764L19.002,77.764C18.898,76.922 18.477,75.957 16.543,75.957C15.156,75.957 14.399,76.671 14.399,77.449C14.399,78.269 15.156,78.521 16.249,78.753L17.721,79.088Z" style="fill:white;fill-rule:nonzero;"/>
        <path d="M27.431,79.088C30.142,79.718 30.9,80.645 30.9,82.2C30.9,84.218 29.325,85.878 26.421,85.878C22.933,85.878 21.84,84.008 21.84,81.948L23.732,81.948C23.772,82.999 24.152,84.156 26.675,84.156C28.104,84.156 28.965,83.485 28.965,82.496C28.965,81.78 28.524,81.338 27.223,81.023L25.077,80.517C23.48,80.162 22.175,79.508 22.175,77.576C22.175,75.662 23.585,74.233 26.379,74.233C29.429,74.233 30.606,76.103 30.606,77.764L28.713,77.764C28.61,76.922 28.188,75.957 26.254,75.957C24.866,75.957 24.11,76.671 24.11,77.449C24.11,78.269 24.866,78.521 25.96,78.753L27.431,79.088Z" style="fill:white;fill-rule:nonzero;"/>
        <path d="M41.726,81.906C41.579,83.546 40.149,85.878 36.997,85.878C33.695,85.878 31.909,83.672 31.909,80.056C31.909,76.441 33.695,74.233 36.997,74.233C40.002,74.233 41.874,76.209 41.874,79.489C41.874,79.868 41.852,80.246 41.832,80.581L33.927,80.581C33.991,83.147 35.358,84.156 36.997,84.156C38.909,84.156 39.562,82.767 39.834,81.906L41.726,81.906ZM39.898,78.985C39.877,77.848 39.14,75.957 36.997,75.957C35.252,75.957 34.201,76.819 33.927,78.985L39.898,78.985Z" style="fill:white;fill-rule:nonzero;"/>
        <path d="M45.255,79.91L41.596,74.569L43.995,74.569L46.454,78.395L48.914,74.569L51.309,74.569L47.653,79.91L51.585,85.542L49.187,85.542L46.454,81.338L43.722,85.542L41.325,85.542L45.255,79.91Z" style="fill:white;fill-rule:nonzero;"/>
        <path d="M68.904,79.868C68.608,82.264 67.179,85.88 62.45,85.88C58.265,85.88 55.532,82.873 55.532,77.974C55.532,73.077 58.265,70.071 62.45,70.071C67.559,70.071 68.776,73.622 68.904,75.201L66.801,75.201C66.486,73.979 65.605,72.045 62.66,72.045C59.59,72.045 57.762,74.317 57.762,77.974C57.762,81.632 59.59,83.903 62.66,83.903C65.625,83.903 66.506,81.422 66.801,79.868L68.904,79.868Z" style="fill:white;fill-rule:nonzero;"/>
        <path d="M74.787,84.156C76.595,84.156 77.856,82.979 77.856,80.056C77.856,77.134 76.595,75.957 74.787,75.957C72.978,75.957 71.717,77.134 71.717,80.056C71.717,82.979 72.978,84.156 74.787,84.156ZM69.7,80.056C69.7,76.441 71.488,74.231 74.787,74.231C78.085,74.231 79.875,76.441 79.875,80.056C79.875,83.672 78.085,85.878 74.787,85.878C71.488,85.878 69.7,83.672 69.7,80.056Z" style="fill:white;fill-rule:nonzero;"/>
        <path d="M88.344,84.176C87.755,84.681 86.766,85.878 84.516,85.878C82.499,85.878 81.237,84.746 81.237,81.886L81.237,74.569L83.171,74.569L83.171,81.906C83.171,83.083 83.697,84.072 85.211,84.072C86.789,84.072 88.259,83.105 88.259,81.191L88.259,74.569L90.193,74.569L90.193,85.542L88.344,85.542L88.344,84.176Z" style="fill:white;fill-rule:nonzero;"/>
        <path d="M92.147,74.569L93.998,74.569L93.998,75.936C94.585,75.43 95.575,74.233 97.824,74.233C99.714,74.233 101.104,75.368 101.104,78.227L101.104,85.542L99.169,85.542L99.169,78.207C99.169,77.071 98.559,76.041 97.13,76.041C95.554,76.041 94.082,77.071 94.082,78.92L94.082,85.542L92.147,85.542L92.147,74.569Z" style="fill:white;fill-rule:nonzero;"/>
        <path d="M106.988,85.691C106.673,85.691 106.211,85.733 105.708,85.733C103.75,85.733 103.204,85.081 103.204,82.935L103.204,76.165L101.753,76.165L101.753,74.569L103.204,74.569L103.204,71.625L105.139,71.625L105.139,74.569L106.944,74.569L106.944,76.165L105.139,76.165L105.139,82.683C105.139,83.756 105.476,84.008 106.189,84.008C106.421,84.008 106.801,83.966 106.988,83.966L106.988,85.691Z" style="fill:white;fill-rule:nonzero;"/>
        <path d="M113.439,86.742C112.366,89.727 111.442,90 110.244,90C109.78,90 109.318,89.916 108.879,89.832L108.879,88.067C109.215,88.17 109.635,88.235 110.032,88.235C111.085,88.235 111.442,87.013 111.885,85.752L107.826,74.569L109.928,74.569L112.871,83.251L112.913,83.251L115.793,74.569L117.854,74.569L113.439,86.742Z" style="fill:white;fill-rule:nonzero;"/>
        <path d="M135.409,79.868C135.117,82.264 133.685,85.88 128.957,85.88C124.772,85.88 122.039,82.873 122.039,77.974C122.039,73.077 124.772,70.071 128.957,70.071C134.064,70.071 135.283,73.622 135.409,75.201L133.307,75.201C132.991,73.979 132.109,72.045 129.164,72.045C126.098,72.045 124.267,74.317 124.267,77.974C124.267,81.632 126.098,83.903 129.164,83.903C132.13,83.903 133.013,81.422 133.307,79.868L135.409,79.868Z" style="fill:white;fill-rule:nonzero;"/>
        <path d="M141.313,84.156C143.122,84.156 144.383,82.979 144.383,80.056C144.383,77.134 143.122,75.957 141.313,75.957C139.506,75.957 138.243,77.134 138.243,80.056C138.243,82.979 139.506,84.156 141.313,84.156ZM136.227,80.056C136.227,76.441 138.013,74.231 141.313,74.231C144.615,74.231 146.401,76.441 146.401,80.056C146.401,83.672 144.615,85.878 141.313,85.878C138.013,85.878 136.227,83.672 136.227,80.056Z" style="fill:white;fill-rule:nonzero;"/>
        <path d="M154.682,84.176C154.093,84.681 153.105,85.878 150.855,85.878C148.837,85.878 147.576,84.746 147.576,81.886L147.576,74.569L149.509,74.569L149.509,81.906C149.509,83.083 150.034,84.072 151.551,84.072C153.127,84.072 154.598,83.105 154.598,81.191L154.598,74.569L156.532,74.569L156.532,85.542L154.682,85.542L154.682,84.176Z" style="fill:white;fill-rule:nonzero;"/>
        <path d="M158.191,74.569L160.041,74.569L160.041,75.936C160.629,75.43 161.618,74.233 163.868,74.233C165.758,74.233 167.146,75.368 167.146,78.227L167.146,85.542L165.213,85.542L165.213,78.207C165.213,77.071 164.604,76.041 163.175,76.041C161.598,76.041 160.125,77.071 160.125,78.92L160.125,85.542L158.191,85.542L158.191,74.569Z" style="fill:white;fill-rule:nonzero;"/>
        <path d="M177.699,81.59C177.594,83.653 176.185,85.878 173.241,85.878C169.94,85.878 168.154,83.672 168.154,80.058C168.154,76.439 169.94,74.233 173.241,74.233C176.563,74.233 177.636,76.587 177.636,78.353L175.743,78.353C175.659,77.344 175.136,75.957 173.241,75.957C171.434,75.957 170.172,77.134 170.172,80.058C170.172,82.979 171.434,84.156 173.241,84.156C175.092,84.156 175.659,82.412 175.807,81.59L177.699,81.59Z" style="fill:white;fill-rule:nonzero;"/>
        <path d="M178.681,70.407L180.615,70.407L180.615,72.552L178.681,72.552L178.681,70.407ZM178.681,74.569L180.615,74.569L180.615,85.542L178.681,85.542L178.681,74.569Z" style="fill:white;fill-rule:nonzero;"/>
        <rect x="182.317" y="70.407" width="1.935" height="15.137" style="fill:white;fill-rule:nonzero;"/>
        <path d="M77.283,25.644C75.583,26.151 74.415,26.676 72.993,27.012C72.38,27.157 71.568,26.514 71.353,25.89C70.911,24.6 70.814,23.1 70.316,21.955C69.524,21.177 66.751,22.142 66.744,23.209C67.103,24.447 68.002,25.924 68.511,27.394C68.658,27.813 68.633,28.251 68.543,28.684C68.349,29.59 67.801,30.324 66.979,30.726C65.446,31.472 63.899,31.959 62.233,32.392C59.998,32.977 57.891,33.565 55.712,34.26C55.554,34.311 55.43,34.452 55.384,34.607C55.061,35.752 55.242,36.656 55.793,37.689C56.168,38.393 56.834,39.466 57.548,39.222C60.246,38.038 62.738,36.698 65.46,35.519C66.782,34.948 68.088,34.158 69.606,34.382C70.427,34.502 71.265,34.952 71.574,35.754C72.104,37.13 72.715,39.862 72.732,39.902C73.209,40.933 76.509,39.752 76.387,38.847C76.383,38.819 75.077,36.126 74.723,35.22C74.423,34.456 75.115,33.419 75.879,33.198C81.535,31.56 87.334,31.304 93.153,31.766C94.306,31.855 95.421,31.92 96.598,32.143C97.819,32.375 98.934,32.583 100.155,32.811C101.755,33.111 102.861,33.616 104.481,33.964C104.843,34.067 104.923,33.733 104.958,33.581L105.016,33.405C105.948,27.18 116.888,31.298 113.41,36.796C113.41,36.796 113.354,36.946 113.331,36.983C113.229,37.168 113.368,37.28 113.368,37.28C114.452,38.034 115.528,38.664 116.791,39.458C116.879,39.513 117.028,39.627 117.152,39.543C117.715,39.16 117.906,38.544 118.369,38.101C118.879,37.612 119.434,37.212 120.061,36.88C122.76,35.45 125.464,34.399 128.269,33.302C128.302,33.291 128.313,33.118 128.269,33.086C106.282,18.507 86.051,23.117 77.433,25.594L77.283,25.644Z" style="fill:white;fill-rule:nonzero;"/>
        <path d="M77.451,4.967C75.749,5.475 74.581,6 73.161,6.336C72.547,6.48 71.734,5.838 71.52,5.214C71.077,3.923 70.982,2.424 70.48,1.278C69.69,0.5 66.918,1.466 66.912,2.534C67.269,3.771 68.17,5.249 68.677,6.717C68.824,7.139 68.801,7.575 68.71,8.007C68.515,8.916 67.967,9.648 67.147,10.049C65.614,10.797 64.065,11.283 62.4,11.715C60.166,12.301 58.059,12.889 55.88,13.584C55.722,13.635 55.596,13.776 55.552,13.931C55.227,15.079 55.41,15.98 55.96,17.013C56.336,17.717 57,18.789 57.714,18.545C60.412,17.361 62.904,16.022 65.627,14.845C66.948,14.272 68.256,13.482 69.772,13.706C70.595,13.827 71.433,14.278 71.742,15.081C72.27,16.455 72.881,19.186 72.898,19.226C73.377,20.257 76.675,19.077 76.553,18.171C76.549,18.142 75.245,15.449 74.889,14.543C74.589,13.779 75.282,12.745 76.047,12.522C81.703,10.883 87.5,10.627 93.321,11.089C94.474,11.179 95.588,11.245 96.764,11.467C97.987,11.699 99.1,11.907 100.322,12.135C101.921,12.436 103.027,12.94 104.647,13.29C105.009,13.39 105.091,13.058 105.122,12.907L105.182,12.728C106.114,6.504 117.054,10.623 113.578,16.121C113.578,16.121 113.52,16.272 113.499,16.306C113.397,16.491 113.534,16.604 113.534,16.604C114.618,17.358 115.694,17.987 116.957,18.783C117.045,18.837 117.194,18.951 117.318,18.867C117.881,18.484 118.074,17.869 118.537,17.425C119.045,16.936 119.6,16.537 120.228,16.205C122.926,14.776 125.632,13.723 128.437,12.626C128.468,12.615 128.479,12.442 128.437,12.411C106.448,-2.169 86.217,2.44 77.6,4.918L77.451,4.967Z" style="fill:white;fill-rule:nonzero;"/>
        <path d="M77.197,46.278C75.495,46.786 74.327,47.311 72.908,47.647C72.294,47.79 71.482,47.148 71.267,46.524C70.824,45.234 70.729,43.734 70.23,42.588C69.438,41.811 66.665,42.776 66.658,43.844C67.017,45.081 67.917,46.559 68.425,48.028C68.572,48.45 68.548,48.885 68.457,49.318C68.263,50.225 67.716,50.958 66.893,51.36C65.36,52.108 63.811,52.593 62.147,53.026C59.912,53.612 57.805,54.199 55.627,54.894C55.468,54.946 55.344,55.086 55.298,55.241C54.975,56.389 55.156,57.29 55.708,58.323C56.084,59.028 56.748,60.1 57.462,59.856C60.16,58.671 62.652,57.332 65.375,56.156C66.694,55.582 68.002,54.793 69.521,55.017C70.341,55.137 71.179,55.586 71.488,56.391C72.019,57.765 72.63,60.497 72.646,60.537C73.123,61.568 76.421,60.387 76.301,59.482C76.297,59.453 74.991,56.759 74.635,55.854C74.337,55.089 75.028,54.055 75.794,53.832C81.449,52.194 87.247,51.938 93.067,52.4C94.22,52.49 95.335,52.555 96.51,52.778C97.733,53.009 98.846,53.217 100.069,53.446C101.669,53.747 102.775,54.251 104.396,54.601C104.755,54.701 104.837,54.369 104.87,54.217L104.931,54.039C105.862,47.814 116.8,51.933 113.324,57.431C113.324,57.431 113.268,57.581 113.245,57.617C113.144,57.801 113.28,57.914 113.28,57.914C114.366,58.669 115.442,59.297 116.705,60.093C116.793,60.148 116.942,60.261 117.064,60.177C117.629,59.794 117.82,59.179 118.284,58.736C118.793,58.247 119.348,57.847 119.976,57.515C122.672,56.086 125.378,55.033 128.183,53.936C128.216,53.925 128.227,53.752 128.183,53.721C106.196,39.141 85.965,43.75 77.347,46.229L77.197,46.278Z" style="fill:white;fill-rule:nonzero;"/>
    </g>
</svg>
