<?xml version="1.0" encoding="UTF-8" standalone="no"?>
<!DOCTYPE svg PUBLIC "-//W3C//DTD SVG 1.1//EN" "http://www.w3.org/Graphics/SVG/1.1/DTD/svg11.dtd">
<svg width="100%" height="100%" viewBox="0 0 880 117" version="1.1" xmlns="http://www.w3.org/2000/svg" xmlns:xlink="http://www.w3.org/1999/xlink" xml:space="preserve" xmlns:serif="http://www.serif.com/" style="fill-rule:evenodd;clip-rule:evenodd;stroke-linejoin:round;stroke-miterlimit:1.41421;">
    <g transform="matrix(4.16667,0,0,4.16667,0,0)">
        <path d="M10.061,11.968C9.287,12.198 8.756,12.436 8.112,12.59C7.834,12.656 7.463,12.363 7.364,12.079C7.165,11.494 7.124,10.812 6.894,10.29C6.537,9.94 5.278,10.376 5.274,10.86C5.436,11.423 5.844,12.095 6.075,12.761C6.141,12.957 6.131,13.152 6.088,13.35C6,13.76 5.751,14.093 5.377,14.275C4.685,14.616 3.978,14.834 3.225,15.034C2.207,15.297 1.249,15.568 0.259,15.883C0.19,15.906 0.133,15.968 0.116,16.039C-0.034,16.559 0.043,16.971 0.295,17.441C0.469,17.758 0.772,18.247 1.093,18.136C2.319,17.597 3.452,16.989 4.688,16.452C5.291,16.196 5.881,15.836 6.573,15.937C6.945,15.992 7.327,16.196 7.465,16.559C7.709,17.185 7.983,18.426 7.992,18.444C8.208,18.912 9.708,18.377 9.649,17.969C9.649,17.954 9.055,16.727 8.898,16.317C8.76,15.969 9.076,15.5 9.42,15.4C11.993,14.657 14.622,14.539 17.266,14.75C17.79,14.79 18.298,14.819 18.834,14.918C19.385,15.024 19.894,15.123 20.448,15.224C21.174,15.361 21.679,15.589 22.413,15.748C22.579,15.794 22.616,15.644 22.629,15.572L22.657,15.491C23.081,12.666 28.049,14.535 26.469,17.034C26.469,17.034 26.44,17.097 26.434,17.12C26.391,17.204 26.45,17.252 26.45,17.252C26.943,17.594 27.43,17.884 28.004,18.244C28.043,18.266 28.111,18.32 28.168,18.282C28.422,18.107 28.51,17.826 28.721,17.626C28.954,17.403 29.206,17.224 29.489,17.07C30.714,16.422 31.944,15.945 33.219,15.445C33.232,15.443 33.239,15.366 33.219,15.349C23.23,8.724 14.043,10.818 10.129,11.943L10.061,11.968Z" style="fill:white;fill-rule:nonzero;"/>
        <path d="M10.136,2.576C9.364,2.805 8.829,3.045 8.184,3.198C7.905,3.267 7.536,2.969 7.441,2.689C7.242,2.103 7.195,1.422 6.967,0.903C6.61,0.546 5.35,0.987 5.346,1.472C5.51,2.032 5.918,2.706 6.15,3.371C6.216,3.564 6.207,3.759 6.165,3.958C6.077,4.371 5.829,4.705 5.454,4.882C4.761,5.223 4.053,5.443 3.299,5.638C2.287,5.909 1.327,6.174 0.337,6.487C0.266,6.514 0.209,6.579 0.19,6.645C0.04,7.17 0.124,7.578 0.374,8.046C0.543,8.367 0.846,8.856 1.168,8.743C2.398,8.204 3.526,7.598 4.766,7.065C5.365,6.801 5.961,6.444 6.647,6.546C7.019,6.6 7.403,6.804 7.543,7.17C7.78,7.795 8.058,9.036 8.071,9.053C8.288,9.522 9.782,8.987 9.728,8.573C9.728,8.559 9.132,7.337 8.97,6.926C8.836,6.579 9.15,6.108 9.497,6.006C12.067,5.265 14.7,5.148 17.345,5.36C17.868,5.399 18.374,5.427 18.907,5.532C19.465,5.633 19.969,5.73 20.522,5.833C21.249,5.968 21.751,6.195 22.492,6.357C22.652,6.404 22.69,6.249 22.706,6.185L22.732,6.103C23.153,3.272 28.123,5.146 26.544,7.641C26.544,7.641 26.518,7.71 26.508,7.723C26.465,7.809 26.527,7.863 26.527,7.863C27.019,8.204 27.508,8.49 28.079,8.85C28.12,8.876 28.187,8.927 28.243,8.886C28.499,8.715 28.587,8.438 28.797,8.238C29.031,8.014 29.28,7.832 29.563,7.68C30.792,7.032 32.022,6.554 33.293,6.057C33.309,6.048 33.311,5.968 33.293,5.954C23.303,-0.665 14.118,1.427 10.204,2.551L10.136,2.576Z" style="fill:white;fill-rule:nonzero;"/>
        <path d="M10.022,21.34C9.246,21.573 8.717,21.811 8.074,21.962C7.793,22.027 7.424,21.738 7.327,21.453C7.125,20.866 7.081,20.185 6.855,19.664C6.496,19.312 5.237,19.75 5.232,20.236C5.395,20.794 5.805,21.466 6.036,22.137C6.104,22.327 6.092,22.526 6.049,22.718C5.961,23.136 5.715,23.466 5.337,23.651C4.644,23.989 3.94,24.21 3.186,24.407C2.168,24.67 1.215,24.937 0.223,25.256C0.151,25.279 0.094,25.342 0.073,25.411C-0.073,25.933 0.006,26.34 0.258,26.81C0.432,27.133 0.731,27.62 1.056,27.507C2.28,26.97 3.413,26.36 4.651,25.825C5.25,25.565 5.844,25.21 6.537,25.308C6.904,25.363 7.286,25.57 7.428,25.938C7.667,26.559 7.946,27.799 7.955,27.819C8.168,28.287 9.666,27.749 9.613,27.339C9.61,27.327 9.016,26.103 8.858,25.692C8.72,25.343 9.036,24.872 9.381,24.772C11.951,24.028 14.585,23.91 17.228,24.122C17.754,24.164 18.257,24.191 18.793,24.29C19.348,24.397 19.852,24.491 20.407,24.598C21.137,24.733 21.639,24.963 22.376,25.119C22.54,25.167 22.574,25.017 22.588,24.947L22.618,24.865C23.041,22.041 28.004,23.908 26.429,26.407C26.429,26.407 26.402,26.475 26.394,26.493C26.35,26.575 26.411,26.623 26.411,26.623C26.905,26.97 27.394,27.256 27.965,27.618C28.004,27.64 28.073,27.691 28.127,27.655C28.384,27.481 28.471,27.202 28.681,27C28.916,26.779 29.165,26.595 29.45,26.444C30.673,25.795 31.907,25.318 33.18,24.818C33.193,24.814 33.2,24.734 33.18,24.721C23.193,18.097 14.004,20.194 10.086,21.32L10.022,21.34Z" style="fill:white;fill-rule:nonzero;"/>
        <path d="M42.69,7.909L52.736,7.909L52.736,9.666L44.6,9.666L44.6,13.657L52.126,13.657L52.126,15.415L44.6,15.415L44.6,19.904L52.852,19.904L52.852,21.66L42.69,21.66L42.69,7.909Z" style="fill:white;fill-rule:nonzero;"/>
        <path d="M58.79,15.794C61.252,16.368 61.94,17.208 61.94,18.622C61.94,20.455 60.51,21.963 57.874,21.963C54.702,21.963 53.71,20.265 53.71,18.392L55.428,18.392C55.467,19.348 55.809,20.398 58.102,20.398C59.401,20.398 60.183,19.789 60.183,18.89C60.183,18.24 59.785,17.838 58.6,17.552L56.65,17.092C55.2,16.769 54.014,16.176 54.014,14.42C54.014,12.683 55.294,11.384 57.834,11.384C60.604,11.384 61.673,13.083 61.673,14.591L59.954,14.591C59.86,13.827 59.477,12.951 57.72,12.951C56.46,12.951 55.772,13.598 55.772,14.305C55.772,15.051 56.46,15.279 57.453,15.491L58.79,15.794Z" style="fill:white;fill-rule:nonzero;"/>
        <path d="M67.611,15.794C70.075,16.368 70.762,17.208 70.762,18.622C70.762,20.455 69.332,21.963 66.694,21.963C63.525,21.963 62.532,20.265 62.532,18.392L64.251,18.392C64.287,19.348 64.632,20.398 66.925,20.398C68.223,20.398 69.004,19.789 69.004,18.89C69.004,18.24 68.604,17.838 67.422,17.552L65.473,17.092C64.022,16.769 62.837,16.176 62.837,14.42C62.837,12.683 64.118,11.384 66.657,11.384C69.426,11.384 70.495,13.083 70.495,14.591L68.777,14.591C68.683,13.827 68.299,12.951 66.543,12.951C65.281,12.951 64.594,13.598 64.594,14.305C64.594,15.051 65.281,15.279 66.276,15.491L67.611,15.794Z" style="fill:white;fill-rule:nonzero;"/>
        <path d="M80.598,18.354C80.463,19.844 79.165,21.963 76.301,21.963C73.301,21.963 71.68,19.959 71.68,16.673C71.68,13.39 73.301,11.384 76.301,11.384C79.031,11.384 80.733,13.18 80.733,16.158C80.733,16.503 80.713,16.846 80.693,17.152L73.513,17.152C73.571,19.482 74.813,20.398 76.301,20.398C78.038,20.398 78.631,19.137 78.877,18.354L80.598,18.354ZM78.937,15.701C78.918,14.668 78.25,12.951 76.301,12.951C74.715,12.951 73.76,13.733 73.513,15.701L78.937,15.701Z" style="fill:white;fill-rule:nonzero;"/>
        <path d="M83.805,16.541L80.48,11.689L82.659,11.689L84.893,15.166L87.127,11.689L89.303,11.689L85.983,16.541L89.555,21.658L87.376,21.658L84.893,17.838L82.411,21.658L80.234,21.658L83.805,16.541Z" style="fill:white;fill-rule:nonzero;"/>
        <path d="M105.288,16.503C105.02,18.679 103.722,21.965 99.424,21.965C95.624,21.965 93.14,19.235 93.14,14.784C93.14,10.334 95.624,7.603 99.424,7.603C104.067,7.603 105.172,10.828 105.288,12.262L103.378,12.262C103.093,11.152 102.292,9.396 99.616,9.396C96.827,9.396 95.167,11.459 95.167,14.784C95.167,18.106 96.827,20.167 99.616,20.167C102.31,20.167 103.11,17.915 103.378,16.503L105.288,16.503Z" style="fill:white;fill-rule:nonzero;"/>
        <path d="M110.633,20.398C112.274,20.398 113.421,19.33 113.421,16.673C113.421,14.02 112.274,12.951 110.633,12.951C108.989,12.951 107.844,14.02 107.844,16.673C107.844,19.33 108.989,20.398 110.633,20.398ZM106.011,16.673C106.011,13.39 107.636,11.382 110.633,11.382C113.63,11.382 115.256,13.39 115.256,16.673C115.256,19.959 113.63,21.963 110.633,21.963C107.636,21.963 106.011,19.959 106.011,16.673Z" style="fill:white;fill-rule:nonzero;"/>
        <path d="M122.95,20.417C122.414,20.875 121.515,21.963 119.472,21.963C117.64,21.963 116.493,20.934 116.493,18.336L116.493,11.689L118.251,11.689L118.251,18.354C118.251,19.424 118.728,20.322 120.104,20.322C121.536,20.322 122.873,19.444 122.873,17.704L122.873,11.689L124.629,11.689L124.629,21.658L122.95,21.658L122.95,20.417Z" style="fill:white;fill-rule:nonzero;"/>
        <path d="M126.404,11.689L128.085,11.689L128.085,12.93C128.619,12.47 129.517,11.384 131.562,11.384C133.279,11.384 134.541,12.415 134.541,15.012L134.541,21.658L132.784,21.658L132.784,14.995C132.784,13.962 132.229,13.027 130.931,13.027C129.498,13.027 128.162,13.962 128.162,15.641L128.162,21.658L126.404,21.658L126.404,11.689Z" style="fill:white;fill-rule:nonzero;"/>
        <path d="M139.887,21.792C139.6,21.792 139.181,21.833 138.723,21.833C136.944,21.833 136.448,21.239 136.448,19.29L136.448,13.138L135.13,13.138L135.13,11.689L136.448,11.689L136.448,9.014L138.206,9.014L138.206,11.689L139.848,11.689L139.848,13.138L138.206,13.138L138.206,19.06C138.206,20.035 138.513,20.265 139.161,20.265C139.371,20.265 139.716,20.227 139.887,20.227L139.887,21.792Z" style="fill:white;fill-rule:nonzero;"/>
        <path d="M145.747,22.748C144.772,25.459 143.934,25.708 142.844,25.708C142.423,25.708 142.003,25.631 141.604,25.555L141.604,23.953C141.909,24.045 142.292,24.104 142.651,24.104C143.608,24.104 143.934,22.994 144.335,21.849L140.648,11.689L142.558,11.689L145.231,19.577L145.271,19.577L147.886,11.689L149.759,11.689L145.747,22.748Z" style="fill:white;fill-rule:nonzero;"/>
        <path d="M165.716,16.503C165.45,18.679 164.149,21.965 159.849,21.965C156.043,21.965 153.56,19.235 153.56,14.784C153.56,10.334 156.043,7.603 159.849,7.603C164.493,7.603 165.603,10.828 165.716,12.262L163.804,12.262C163.517,11.152 162.716,9.396 160.038,9.396C157.249,9.396 155.583,11.459 155.583,14.784C155.583,18.106 157.249,20.167 160.038,20.167C162.733,20.167 163.536,17.915 163.804,16.503L165.716,16.503Z" style="fill:white;fill-rule:nonzero;"/>
        <path d="M171.082,20.398C172.726,20.398 173.87,19.33 173.87,16.673C173.87,14.02 172.726,12.951 171.082,12.951C169.439,12.951 168.292,14.02 168.292,16.673C168.292,19.33 169.439,20.398 171.082,20.398ZM166.459,16.673C166.459,13.39 168.082,11.382 171.082,11.382C174.081,11.382 175.704,13.39 175.704,16.673C175.704,19.959 174.081,21.963 171.082,21.963C168.082,21.963 166.459,19.959 166.459,16.673Z" style="fill:white;fill-rule:nonzero;"/>
        <path d="M183.226,20.417C182.69,20.875 181.794,21.963 179.749,21.963C177.917,21.963 176.771,20.934 176.771,18.336L176.771,11.689L178.526,11.689L178.526,18.354C178.526,19.424 179.004,20.322 180.381,20.322C181.814,20.322 183.149,19.444 183.149,17.704L183.149,11.689L184.907,11.689L184.907,21.658L183.226,21.658L183.226,20.417Z" style="fill:white;fill-rule:nonzero;"/>
        <path d="M186.415,11.689L188.095,11.689L188.095,12.93C188.628,12.47 189.528,11.384 191.572,11.384C193.289,11.384 194.55,12.415 194.55,15.012L194.55,21.658L192.794,21.658L192.794,14.995C192.794,13.962 192.24,13.027 190.942,13.027C189.51,13.027 188.172,13.962 188.172,15.641L188.172,21.658L186.415,21.658L186.415,11.689Z" style="fill:white;fill-rule:nonzero;"/>
        <path d="M204.138,18.068C204.04,19.941 202.761,21.963 200.087,21.963C197.089,21.963 195.466,19.959 195.466,16.674C195.466,13.388 197.089,11.384 200.087,11.384C203.104,11.384 204.08,13.522 204.08,15.125L202.36,15.125C202.282,14.21 201.809,12.951 200.087,12.951C198.444,12.951 197.299,14.02 197.299,16.674C197.299,19.33 198.444,20.398 200.087,20.398C201.768,20.398 202.282,18.814 202.417,18.068L204.138,18.068Z" style="fill:white;fill-rule:nonzero;"/>
        <path d="M205.029,7.909L206.787,7.909L206.787,9.857L205.029,9.857L205.029,7.909ZM205.029,11.689L206.787,11.689L206.787,21.658L205.029,21.658L205.029,11.689Z" style="fill:white;fill-rule:nonzero;"/>
        <rect x="208.333" y="7.909" width="1.758" height="13.751" style="fill:white;fill-rule:nonzero;"/>
    </g>
</svg>
