<?xml version="1.0" encoding="UTF-8" standalone="no"?>
<!DOCTYPE svg PUBLIC "-//W3C//DTD SVG 1.1//EN" "http://www.w3.org/Graphics/SVG/1.1/DTD/svg11.dtd">
<svg width="100%" height="100%" viewBox="0 0 698 76" version="1.1" xmlns="http://www.w3.org/2000/svg" xmlns:xlink="http://www.w3.org/1999/xlink" xml:space="preserve" xmlns:serif="http://www.serif.com/" style="fill-rule:evenodd;clip-rule:evenodd;stroke-linejoin:round;stroke-miterlimit:1.41421;">
    <g transform="matrix(4.16667,0,0,4.16667,-177.875,-31.6792)">
        <path d="M42.69,7.909L52.736,7.909L52.736,9.666L44.6,9.666L44.6,13.657L52.126,13.657L52.126,15.415L44.6,15.415L44.6,19.904L52.852,19.904L52.852,21.66L42.69,21.66L42.69,7.909Z" style="fill:white;fill-rule:nonzero;"/>
    </g>
    <g transform="matrix(4.16667,0,0,4.16667,-177.875,-31.6792)">
        <path d="M58.79,15.794C61.252,16.368 61.94,17.208 61.94,18.622C61.94,20.455 60.51,21.963 57.874,21.963C54.702,21.963 53.71,20.265 53.71,18.392L55.428,18.392C55.467,19.348 55.809,20.398 58.102,20.398C59.401,20.398 60.183,19.789 60.183,18.89C60.183,18.24 59.785,17.838 58.6,17.552L56.65,17.092C55.2,16.769 54.014,16.176 54.014,14.42C54.014,12.683 55.294,11.384 57.834,11.384C60.604,11.384 61.673,13.083 61.673,14.591L59.954,14.591C59.86,13.827 59.477,12.951 57.72,12.951C56.46,12.951 55.772,13.598 55.772,14.305C55.772,15.051 56.46,15.279 57.453,15.491L58.79,15.794Z" style="fill:white;fill-rule:nonzero;"/>
    </g>
    <g transform="matrix(4.16667,0,0,4.16667,-177.875,-31.6792)">
        <path d="M67.611,15.794C70.075,16.368 70.762,17.208 70.762,18.622C70.762,20.455 69.332,21.963 66.694,21.963C63.525,21.963 62.532,20.265 62.532,18.392L64.251,18.392C64.287,19.348 64.632,20.398 66.925,20.398C68.223,20.398 69.004,19.789 69.004,18.89C69.004,18.24 68.604,17.838 67.422,17.552L65.473,17.092C64.022,16.769 62.837,16.176 62.837,14.42C62.837,12.683 64.118,11.384 66.657,11.384C69.426,11.384 70.495,13.083 70.495,14.591L68.777,14.591C68.683,13.827 68.299,12.951 66.543,12.951C65.281,12.951 64.594,13.598 64.594,14.305C64.594,15.051 65.281,15.279 66.276,15.491L67.611,15.794Z" style="fill:white;fill-rule:nonzero;"/>
    </g>
    <g transform="matrix(4.16667,0,0,4.16667,-177.875,-31.6792)">
        <path d="M80.598,18.354C80.463,19.844 79.165,21.963 76.301,21.963C73.301,21.963 71.68,19.959 71.68,16.673C71.68,13.39 73.301,11.384 76.301,11.384C79.031,11.384 80.733,13.18 80.733,16.158C80.733,16.503 80.713,16.846 80.693,17.152L73.513,17.152C73.571,19.482 74.813,20.398 76.301,20.398C78.038,20.398 78.631,19.137 78.877,18.354L80.598,18.354ZM78.937,15.701C78.918,14.668 78.25,12.951 76.301,12.951C74.715,12.951 73.76,13.733 73.513,15.701L78.937,15.701Z" style="fill:white;fill-rule:nonzero;"/>
    </g>
    <g transform="matrix(4.16667,0,0,4.16667,-177.875,-31.6792)">
        <path d="M83.805,16.541L80.48,11.689L82.659,11.689L84.893,15.166L87.127,11.689L89.303,11.689L85.983,16.541L89.555,21.658L87.376,21.658L84.893,17.838L82.411,21.658L80.234,21.658L83.805,16.541Z" style="fill:white;fill-rule:nonzero;"/>
    </g>
    <g transform="matrix(4.16667,0,0,4.16667,-177.875,-31.6792)">
        <path d="M105.288,16.503C105.02,18.679 103.722,21.965 99.424,21.965C95.624,21.965 93.14,19.235 93.14,14.784C93.14,10.334 95.624,7.603 99.424,7.603C104.067,7.603 105.172,10.828 105.288,12.262L103.378,12.262C103.093,11.152 102.292,9.396 99.616,9.396C96.827,9.396 95.167,11.459 95.167,14.784C95.167,18.106 96.827,20.167 99.616,20.167C102.31,20.167 103.11,17.915 103.378,16.503L105.288,16.503Z" style="fill:white;fill-rule:nonzero;"/>
    </g>
    <g transform="matrix(4.16667,0,0,4.16667,-177.875,-31.6792)">
        <path d="M110.633,20.398C112.274,20.398 113.421,19.33 113.421,16.673C113.421,14.02 112.274,12.951 110.633,12.951C108.989,12.951 107.844,14.02 107.844,16.673C107.844,19.33 108.989,20.398 110.633,20.398ZM106.011,16.673C106.011,13.39 107.636,11.382 110.633,11.382C113.63,11.382 115.256,13.39 115.256,16.673C115.256,19.959 113.63,21.963 110.633,21.963C107.636,21.963 106.011,19.959 106.011,16.673Z" style="fill:white;fill-rule:nonzero;"/>
    </g>
    <g transform="matrix(4.16667,0,0,4.16667,-177.875,-31.6792)">
        <path d="M122.95,20.417C122.414,20.875 121.515,21.963 119.472,21.963C117.64,21.963 116.493,20.934 116.493,18.336L116.493,11.689L118.251,11.689L118.251,18.354C118.251,19.424 118.728,20.322 120.104,20.322C121.536,20.322 122.873,19.444 122.873,17.704L122.873,11.689L124.629,11.689L124.629,21.658L122.95,21.658L122.95,20.417Z" style="fill:white;fill-rule:nonzero;"/>
    </g>
    <g transform="matrix(4.16667,0,0,4.16667,-177.875,-31.6792)">
        <path d="M126.404,11.689L128.085,11.689L128.085,12.93C128.619,12.47 129.517,11.384 131.562,11.384C133.279,11.384 134.541,12.415 134.541,15.012L134.541,21.658L132.784,21.658L132.784,14.995C132.784,13.962 132.229,13.027 130.931,13.027C129.498,13.027 128.162,13.962 128.162,15.641L128.162,21.658L126.404,21.658L126.404,11.689Z" style="fill:white;fill-rule:nonzero;"/>
    </g>
    <g transform="matrix(4.16667,0,0,4.16667,-177.875,-31.6792)">
        <path d="M139.887,21.792C139.6,21.792 139.181,21.833 138.723,21.833C136.944,21.833 136.448,21.239 136.448,19.29L136.448,13.138L135.13,13.138L135.13,11.689L136.448,11.689L136.448,9.014L138.206,9.014L138.206,11.689L139.848,11.689L139.848,13.138L138.206,13.138L138.206,19.06C138.206,20.035 138.513,20.265 139.161,20.265C139.371,20.265 139.716,20.227 139.887,20.227L139.887,21.792Z" style="fill:white;fill-rule:nonzero;"/>
    </g>
    <g transform="matrix(4.16667,0,0,4.16667,-177.875,-31.6792)">
        <path d="M145.747,22.748C144.772,25.459 143.934,25.708 142.844,25.708C142.423,25.708 142.003,25.631 141.604,25.555L141.604,23.953C141.909,24.045 142.292,24.104 142.651,24.104C143.608,24.104 143.934,22.994 144.335,21.849L140.648,11.689L142.558,11.689L145.231,19.577L145.271,19.577L147.886,11.689L149.759,11.689L145.747,22.748Z" style="fill:white;fill-rule:nonzero;"/>
    </g>
    <g transform="matrix(4.16667,0,0,4.16667,-177.875,-31.6792)">
        <path d="M165.716,16.503C165.45,18.679 164.149,21.965 159.849,21.965C156.043,21.965 153.56,19.235 153.56,14.784C153.56,10.334 156.043,7.603 159.849,7.603C164.493,7.603 165.603,10.828 165.716,12.262L163.804,12.262C163.517,11.152 162.716,9.396 160.038,9.396C157.249,9.396 155.583,11.459 155.583,14.784C155.583,18.106 157.249,20.167 160.038,20.167C162.733,20.167 163.536,17.915 163.804,16.503L165.716,16.503Z" style="fill:white;fill-rule:nonzero;"/>
    </g>
    <g transform="matrix(4.16667,0,0,4.16667,-177.875,-31.6792)">
        <path d="M171.082,20.398C172.726,20.398 173.87,19.33 173.87,16.673C173.87,14.02 172.726,12.951 171.082,12.951C169.439,12.951 168.292,14.02 168.292,16.673C168.292,19.33 169.439,20.398 171.082,20.398ZM166.459,16.673C166.459,13.39 168.082,11.382 171.082,11.382C174.081,11.382 175.704,13.39 175.704,16.673C175.704,19.959 174.081,21.963 171.082,21.963C168.082,21.963 166.459,19.959 166.459,16.673Z" style="fill:white;fill-rule:nonzero;"/>
    </g>
    <g transform="matrix(4.16667,0,0,4.16667,-177.875,-31.6792)">
        <path d="M183.226,20.417C182.69,20.875 181.794,21.963 179.749,21.963C177.917,21.963 176.771,20.934 176.771,18.336L176.771,11.689L178.526,11.689L178.526,18.354C178.526,19.424 179.004,20.322 180.381,20.322C181.814,20.322 183.149,19.444 183.149,17.704L183.149,11.689L184.907,11.689L184.907,21.658L183.226,21.658L183.226,20.417Z" style="fill:white;fill-rule:nonzero;"/>
    </g>
    <g transform="matrix(4.16667,0,0,4.16667,-177.875,-31.6792)">
        <path d="M186.415,11.689L188.095,11.689L188.095,12.93C188.628,12.47 189.528,11.384 191.572,11.384C193.289,11.384 194.55,12.415 194.55,15.012L194.55,21.658L192.794,21.658L192.794,14.995C192.794,13.962 192.24,13.027 190.942,13.027C189.51,13.027 188.172,13.962 188.172,15.641L188.172,21.658L186.415,21.658L186.415,11.689Z" style="fill:white;fill-rule:nonzero;"/>
    </g>
    <g transform="matrix(4.16667,0,0,4.16667,-177.875,-31.6792)">
        <path d="M204.138,18.068C204.04,19.941 202.761,21.963 200.087,21.963C197.089,21.963 195.466,19.959 195.466,16.674C195.466,13.388 197.089,11.384 200.087,11.384C203.104,11.384 204.08,13.522 204.08,15.125L202.36,15.125C202.282,14.21 201.809,12.951 200.087,12.951C198.444,12.951 197.299,14.02 197.299,16.674C197.299,19.33 198.444,20.398 200.087,20.398C201.768,20.398 202.282,18.814 202.417,18.068L204.138,18.068Z" style="fill:white;fill-rule:nonzero;"/>
    </g>
    <g transform="matrix(4.16667,0,0,4.16667,-177.875,-31.6792)">
        <path d="M205.029,7.909L206.787,7.909L206.787,9.857L205.029,9.857L205.029,7.909ZM205.029,11.689L206.787,11.689L206.787,21.658L205.029,21.658L205.029,11.689Z" style="fill:white;fill-rule:nonzero;"/>
    </g>
    <g transform="matrix(4.16667,0,0,4.16667,-177.875,-31.6792)">
        <rect x="208.333" y="7.909" width="1.758" height="13.751" style="fill:white;"/>
    </g>
</svg>
